<mxfile host="app.diagrams.net" modified="2023-12-18T11:38:30.922Z" agent="Mozilla/5.0 (X11; Ubuntu; Linux x86_64; rv:120.0) Gecko/20100101 Firefox/120.0" etag="RbwsTslHfpIQEWeiAbpm" version="22.1.11" type="device">
  <diagram name="Page-1" id="nIG7myiSb-PIkevMTJR0">
    <mxGraphModel dx="994" dy="549" grid="1" gridSize="10" guides="1" tooltips="1" connect="1" arrows="1" fold="1" page="1" pageScale="1" pageWidth="827" pageHeight="1169" math="0" shadow="0">
      <root>
        <mxCell id="0" />
        <mxCell id="1" parent="0" />
        <mxCell id="0jlNFx-OGj3ViDCjPwvR-1" value="State&lt;br&gt;0, 1, 3, 4, 6" style="ellipse;whiteSpace=wrap;html=1;aspect=fixed;" parent="1" vertex="1">
          <mxGeometry x="120" y="160" width="80" height="80" as="geometry" />
        </mxCell>
        <mxCell id="0jlNFx-OGj3ViDCjPwvR-2" value="7&lt;br&gt;dfuERROR " style="ellipse;whiteSpace=wrap;html=1;aspect=fixed;" parent="1" vertex="1">
          <mxGeometry x="440" y="160" width="80" height="80" as="geometry" />
        </mxCell>
        <mxCell id="0jlNFx-OGj3ViDCjPwvR-3" value="Any state" style="ellipse;whiteSpace=wrap;html=1;aspect=fixed;" parent="1" vertex="1">
          <mxGeometry x="680" y="160" width="80" height="80" as="geometry" />
        </mxCell>
        <mxCell id="0jlNFx-OGj3ViDCjPwvR-31" style="edgeStyle=orthogonalEdgeStyle;rounded=0;orthogonalLoop=1;jettySize=auto;html=1;entryX=1;entryY=0;entryDx=0;entryDy=0;curved=1;endArrow=none;endFill=0;startArrow=classic;startFill=1;exitX=0.202;exitY=0.118;exitDx=0;exitDy=0;exitPerimeter=0;" parent="1" source="0jlNFx-OGj3ViDCjPwvR-4" target="0jlNFx-OGj3ViDCjPwvR-4" edge="1">
          <mxGeometry relative="1" as="geometry">
            <mxPoint x="100.59999999999991" y="370.88" as="targetPoint" />
            <mxPoint x="65.6400000000001" y="369.6" as="sourcePoint" />
            <Array as="points">
              <mxPoint x="40" y="369" />
              <mxPoint x="40" y="286" />
              <mxPoint x="120" y="286" />
              <mxPoint x="120" y="372" />
            </Array>
          </mxGeometry>
        </mxCell>
        <mxCell id="0jlNFx-OGj3ViDCjPwvR-32" value="DFU_UPLOAD" style="edgeLabel;html=1;align=center;verticalAlign=middle;resizable=0;points=[];" parent="0jlNFx-OGj3ViDCjPwvR-31" vertex="1" connectable="0">
          <mxGeometry x="0.0486" y="-2" relative="1" as="geometry">
            <mxPoint as="offset" />
          </mxGeometry>
        </mxCell>
        <mxCell id="0jlNFx-OGj3ViDCjPwvR-4" value="&lt;div&gt;6&lt;br&gt;&lt;/div&gt;&lt;div&gt;dfuUPLOAD-IDLE&lt;/div&gt;" style="ellipse;whiteSpace=wrap;html=1;aspect=fixed;" parent="1" vertex="1">
          <mxGeometry x="41" y="360" width="80" height="80" as="geometry" />
        </mxCell>
        <mxCell id="0jlNFx-OGj3ViDCjPwvR-5" value="0&lt;br&gt;dfuIDLE " style="ellipse;whiteSpace=wrap;html=1;aspect=fixed;" parent="1" vertex="1">
          <mxGeometry x="280" y="360" width="80" height="80" as="geometry" />
        </mxCell>
        <mxCell id="0jlNFx-OGj3ViDCjPwvR-6" value="1&lt;br&gt;dfuDNLOAD-SYNC " style="ellipse;whiteSpace=wrap;html=1;aspect=fixed;" parent="1" vertex="1">
          <mxGeometry x="520" y="360" width="80" height="80" as="geometry" />
        </mxCell>
        <mxCell id="0jlNFx-OGj3ViDCjPwvR-7" value="2&lt;br&gt;&lt;div&gt;dfuDNLOAD-BUSY&lt;/div&gt;" style="ellipse;whiteSpace=wrap;html=1;aspect=fixed;" parent="1" vertex="1">
          <mxGeometry x="720" y="360" width="80" height="80" as="geometry" />
        </mxCell>
        <mxCell id="0jlNFx-OGj3ViDCjPwvR-8" value="4&lt;br&gt;&lt;div&gt;dfuMANIFEST&lt;br&gt;-SYNC&lt;/div&gt;" style="ellipse;whiteSpace=wrap;html=1;aspect=fixed;" parent="1" vertex="1">
          <mxGeometry x="280" y="559" width="80" height="80" as="geometry" />
        </mxCell>
        <mxCell id="0jlNFx-OGj3ViDCjPwvR-9" value="&lt;div&gt;3&lt;/div&gt;&lt;div&gt;dfuDNLOAD-IDLE&lt;/div&gt;" style="ellipse;whiteSpace=wrap;html=1;aspect=fixed;" parent="1" vertex="1">
          <mxGeometry x="520" y="559" width="80" height="80" as="geometry" />
        </mxCell>
        <mxCell id="0jlNFx-OGj3ViDCjPwvR-10" value="State &lt;br&gt;0, 1, 3, 4, 6, 7 " style="ellipse;whiteSpace=wrap;html=1;aspect=fixed;" parent="1" vertex="1">
          <mxGeometry x="440" y="759" width="80" height="80" as="geometry" />
        </mxCell>
        <mxCell id="0jlNFx-OGj3ViDCjPwvR-11" value="State &lt;br&gt;0, 3, 6, 7 " style="ellipse;whiteSpace=wrap;html=1;aspect=fixed;" parent="1" vertex="1">
          <mxGeometry x="600" y="759" width="80" height="80" as="geometry" />
        </mxCell>
        <mxCell id="0jlNFx-OGj3ViDCjPwvR-13" value="5&lt;div&gt;dfuMANIFEST&lt;/div&gt;" style="ellipse;whiteSpace=wrap;html=1;aspect=fixed;" parent="1" vertex="1">
          <mxGeometry x="280" y="760" width="80" height="80" as="geometry" />
        </mxCell>
        <mxCell id="0jlNFx-OGj3ViDCjPwvR-16" value="" style="endArrow=classic;html=1;rounded=0;exitX=0.5;exitY=1;exitDx=0;exitDy=0;" parent="1" source="0jlNFx-OGj3ViDCjPwvR-1" target="0jlNFx-OGj3ViDCjPwvR-5" edge="1">
          <mxGeometry width="50" height="50" relative="1" as="geometry">
            <mxPoint x="430" y="390" as="sourcePoint" />
            <mxPoint x="480" y="340" as="targetPoint" />
          </mxGeometry>
        </mxCell>
        <mxCell id="0jlNFx-OGj3ViDCjPwvR-17" value="&lt;div&gt;DFU_ABORT&lt;/div&gt;" style="edgeLabel;html=1;align=center;verticalAlign=middle;resizable=0;points=[];" parent="0jlNFx-OGj3ViDCjPwvR-16" vertex="1" connectable="0">
          <mxGeometry x="-0.0738" y="-4" relative="1" as="geometry">
            <mxPoint as="offset" />
          </mxGeometry>
        </mxCell>
        <mxCell id="0jlNFx-OGj3ViDCjPwvR-18" value="" style="endArrow=classic;html=1;rounded=0;exitX=0.5;exitY=1;exitDx=0;exitDy=0;entryX=1;entryY=0;entryDx=0;entryDy=0;" parent="1" source="0jlNFx-OGj3ViDCjPwvR-2" target="0jlNFx-OGj3ViDCjPwvR-5" edge="1">
          <mxGeometry width="50" height="50" relative="1" as="geometry">
            <mxPoint x="198" y="238" as="sourcePoint" />
            <mxPoint x="302" y="382" as="targetPoint" />
          </mxGeometry>
        </mxCell>
        <mxCell id="0jlNFx-OGj3ViDCjPwvR-19" value="&lt;div&gt;DFU_CLRSTATUS&lt;/div&gt;" style="edgeLabel;html=1;align=center;verticalAlign=middle;resizable=0;points=[];" parent="0jlNFx-OGj3ViDCjPwvR-18" vertex="1" connectable="0">
          <mxGeometry x="-0.0738" y="-4" relative="1" as="geometry">
            <mxPoint x="19" y="5" as="offset" />
          </mxGeometry>
        </mxCell>
        <mxCell id="0jlNFx-OGj3ViDCjPwvR-21" value="" style="endArrow=classic;html=1;rounded=0;exitX=0;exitY=0.5;exitDx=0;exitDy=0;entryX=1;entryY=0.5;entryDx=0;entryDy=0;" parent="1" source="0jlNFx-OGj3ViDCjPwvR-3" target="0jlNFx-OGj3ViDCjPwvR-2" edge="1">
          <mxGeometry width="50" height="50" relative="1" as="geometry">
            <mxPoint x="490" y="250" as="sourcePoint" />
            <mxPoint x="438" y="382" as="targetPoint" />
          </mxGeometry>
        </mxCell>
        <mxCell id="0jlNFx-OGj3ViDCjPwvR-22" value="Any state except OK" style="edgeLabel;html=1;align=center;verticalAlign=middle;resizable=0;points=[];" parent="0jlNFx-OGj3ViDCjPwvR-21" vertex="1" connectable="0">
          <mxGeometry x="-0.0738" y="-4" relative="1" as="geometry">
            <mxPoint as="offset" />
          </mxGeometry>
        </mxCell>
        <mxCell id="0jlNFx-OGj3ViDCjPwvR-25" value="" style="endArrow=classic;html=1;rounded=0;exitX=0;exitY=0.5;exitDx=0;exitDy=0;entryX=1;entryY=0.5;entryDx=0;entryDy=0;" parent="1" source="0jlNFx-OGj3ViDCjPwvR-5" target="0jlNFx-OGj3ViDCjPwvR-4" edge="1">
          <mxGeometry width="50" height="50" relative="1" as="geometry">
            <mxPoint x="430" y="390" as="sourcePoint" />
            <mxPoint x="480" y="340" as="targetPoint" />
          </mxGeometry>
        </mxCell>
        <mxCell id="0jlNFx-OGj3ViDCjPwvR-26" value="DFU_UPLOAD" style="edgeLabel;html=1;align=center;verticalAlign=middle;resizable=0;points=[];" parent="0jlNFx-OGj3ViDCjPwvR-25" vertex="1" connectable="0">
          <mxGeometry x="0.2127" relative="1" as="geometry">
            <mxPoint x="14" as="offset" />
          </mxGeometry>
        </mxCell>
        <mxCell id="0jlNFx-OGj3ViDCjPwvR-27" value="" style="endArrow=classic;html=1;rounded=0;exitX=1;exitY=1;exitDx=0;exitDy=0;entryX=0;entryY=1;entryDx=0;entryDy=0;" parent="1" source="0jlNFx-OGj3ViDCjPwvR-4" target="0jlNFx-OGj3ViDCjPwvR-5" edge="1">
          <mxGeometry width="50" height="50" relative="1" as="geometry">
            <mxPoint x="302" y="382" as="sourcePoint" />
            <mxPoint x="119" y="382" as="targetPoint" />
          </mxGeometry>
        </mxCell>
        <mxCell id="0jlNFx-OGj3ViDCjPwvR-28" value="DFU_UPLOAD&lt;br&gt;(short frame)" style="edgeLabel;html=1;align=center;verticalAlign=middle;resizable=0;points=[];" parent="0jlNFx-OGj3ViDCjPwvR-27" vertex="1" connectable="0">
          <mxGeometry x="0.2127" relative="1" as="geometry">
            <mxPoint x="-26" as="offset" />
          </mxGeometry>
        </mxCell>
        <mxCell id="0jlNFx-OGj3ViDCjPwvR-33" value="" style="endArrow=classic;html=1;rounded=0;exitX=1;exitY=0.5;exitDx=0;exitDy=0;entryX=0;entryY=0.5;entryDx=0;entryDy=0;" parent="1" source="0jlNFx-OGj3ViDCjPwvR-5" target="0jlNFx-OGj3ViDCjPwvR-6" edge="1">
          <mxGeometry width="50" height="50" relative="1" as="geometry">
            <mxPoint x="290" y="410" as="sourcePoint" />
            <mxPoint x="131" y="410" as="targetPoint" />
          </mxGeometry>
        </mxCell>
        <mxCell id="0jlNFx-OGj3ViDCjPwvR-34" value="&lt;div&gt;DFU_DNLOAD&lt;br&gt;(wLength&amp;gt;0)&lt;br&gt;&lt;/div&gt;" style="edgeLabel;html=1;align=center;verticalAlign=middle;resizable=0;points=[];" parent="0jlNFx-OGj3ViDCjPwvR-33" vertex="1" connectable="0">
          <mxGeometry x="0.2127" relative="1" as="geometry">
            <mxPoint x="-15" as="offset" />
          </mxGeometry>
        </mxCell>
        <mxCell id="0jlNFx-OGj3ViDCjPwvR-38" value="&lt;div&gt;&lt;br&gt;&lt;/div&gt;" style="edgeLabel;html=1;align=center;verticalAlign=middle;resizable=0;points=[];" parent="0jlNFx-OGj3ViDCjPwvR-33" vertex="1" connectable="0">
          <mxGeometry x="-0.05" y="-3" relative="1" as="geometry">
            <mxPoint as="offset" />
          </mxGeometry>
        </mxCell>
        <mxCell id="0jlNFx-OGj3ViDCjPwvR-39" value="" style="endArrow=classic;html=1;rounded=0;exitX=1;exitY=0;exitDx=0;exitDy=0;entryX=0;entryY=0;entryDx=0;entryDy=0;" parent="1" source="0jlNFx-OGj3ViDCjPwvR-6" target="0jlNFx-OGj3ViDCjPwvR-7" edge="1">
          <mxGeometry width="50" height="50" relative="1" as="geometry">
            <mxPoint x="600" y="380" as="sourcePoint" />
            <mxPoint x="690" y="372" as="targetPoint" />
          </mxGeometry>
        </mxCell>
        <mxCell id="0jlNFx-OGj3ViDCjPwvR-40" value="&lt;div&gt;DFU_GETSTATUS&lt;br&gt;(block in progress)&lt;br&gt;&lt;/div&gt;" style="edgeLabel;html=1;align=center;verticalAlign=middle;resizable=0;points=[];" parent="0jlNFx-OGj3ViDCjPwvR-39" vertex="1" connectable="0">
          <mxGeometry x="0.2127" relative="1" as="geometry">
            <mxPoint x="-17" as="offset" />
          </mxGeometry>
        </mxCell>
        <mxCell id="0jlNFx-OGj3ViDCjPwvR-41" value="&lt;div&gt;&lt;br&gt;&lt;/div&gt;" style="edgeLabel;html=1;align=center;verticalAlign=middle;resizable=0;points=[];" parent="0jlNFx-OGj3ViDCjPwvR-39" vertex="1" connectable="0">
          <mxGeometry x="-0.05" y="-3" relative="1" as="geometry">
            <mxPoint as="offset" />
          </mxGeometry>
        </mxCell>
        <mxCell id="0jlNFx-OGj3ViDCjPwvR-42" value="" style="endArrow=classic;html=1;rounded=0;exitX=0.079;exitY=0.761;exitDx=0;exitDy=0;entryX=0.9;entryY=0.775;entryDx=0;entryDy=0;entryPerimeter=0;exitPerimeter=0;" parent="1" source="0jlNFx-OGj3ViDCjPwvR-7" target="0jlNFx-OGj3ViDCjPwvR-6" edge="1">
          <mxGeometry width="50" height="50" relative="1" as="geometry">
            <mxPoint x="598" y="382" as="sourcePoint" />
            <mxPoint x="742" y="382" as="targetPoint" />
          </mxGeometry>
        </mxCell>
        <mxCell id="0jlNFx-OGj3ViDCjPwvR-43" value="Status Poll Timeout" style="edgeLabel;html=1;align=center;verticalAlign=middle;resizable=0;points=[];" parent="0jlNFx-OGj3ViDCjPwvR-42" vertex="1" connectable="0">
          <mxGeometry x="0.2127" relative="1" as="geometry">
            <mxPoint x="18" as="offset" />
          </mxGeometry>
        </mxCell>
        <mxCell id="0jlNFx-OGj3ViDCjPwvR-44" value="&lt;div&gt;&lt;br&gt;&lt;/div&gt;" style="edgeLabel;html=1;align=center;verticalAlign=middle;resizable=0;points=[];" parent="0jlNFx-OGj3ViDCjPwvR-42" vertex="1" connectable="0">
          <mxGeometry x="-0.05" y="-3" relative="1" as="geometry">
            <mxPoint as="offset" />
          </mxGeometry>
        </mxCell>
        <mxCell id="0jlNFx-OGj3ViDCjPwvR-45" value="" style="endArrow=none;html=1;rounded=0;exitX=1;exitY=1;exitDx=0;exitDy=0;entryX=1;entryY=0;entryDx=0;entryDy=0;startArrow=classic;startFill=1;endFill=0;" parent="1" source="0jlNFx-OGj3ViDCjPwvR-6" target="0jlNFx-OGj3ViDCjPwvR-9" edge="1">
          <mxGeometry width="50" height="50" relative="1" as="geometry">
            <mxPoint x="370" y="410" as="sourcePoint" />
            <mxPoint x="530" y="410" as="targetPoint" />
          </mxGeometry>
        </mxCell>
        <mxCell id="0jlNFx-OGj3ViDCjPwvR-46" value="&lt;div&gt;DFU_DNLOAD&lt;br&gt;(wLength&amp;gt;0)&lt;br&gt;&lt;/div&gt;" style="edgeLabel;html=1;align=center;verticalAlign=middle;resizable=0;points=[];" parent="0jlNFx-OGj3ViDCjPwvR-45" vertex="1" connectable="0">
          <mxGeometry x="0.2127" relative="1" as="geometry">
            <mxPoint x="3" y="1" as="offset" />
          </mxGeometry>
        </mxCell>
        <mxCell id="0jlNFx-OGj3ViDCjPwvR-47" value="&lt;div&gt;&lt;br&gt;&lt;/div&gt;" style="edgeLabel;html=1;align=center;verticalAlign=middle;resizable=0;points=[];" parent="0jlNFx-OGj3ViDCjPwvR-45" vertex="1" connectable="0">
          <mxGeometry x="-0.05" y="-3" relative="1" as="geometry">
            <mxPoint as="offset" />
          </mxGeometry>
        </mxCell>
        <mxCell id="0jlNFx-OGj3ViDCjPwvR-48" value="" style="endArrow=none;html=1;rounded=0;exitX=0;exitY=0;exitDx=0;exitDy=0;entryX=0;entryY=1;entryDx=0;entryDy=0;startArrow=classic;startFill=1;endFill=0;" parent="1" source="0jlNFx-OGj3ViDCjPwvR-9" target="0jlNFx-OGj3ViDCjPwvR-6" edge="1">
          <mxGeometry width="50" height="50" relative="1" as="geometry">
            <mxPoint x="598" y="382" as="sourcePoint" />
            <mxPoint x="742" y="382" as="targetPoint" />
          </mxGeometry>
        </mxCell>
        <mxCell id="0jlNFx-OGj3ViDCjPwvR-49" value="&lt;div&gt;DFU_GETSTATUS&lt;br&gt;(block complete)&lt;br&gt;&lt;/div&gt;" style="edgeLabel;html=1;align=center;verticalAlign=middle;resizable=0;points=[];" parent="0jlNFx-OGj3ViDCjPwvR-48" vertex="1" connectable="0">
          <mxGeometry x="0.2127" relative="1" as="geometry">
            <mxPoint x="-17" as="offset" />
          </mxGeometry>
        </mxCell>
        <mxCell id="0jlNFx-OGj3ViDCjPwvR-50" value="&lt;div&gt;&lt;br&gt;&lt;/div&gt;" style="edgeLabel;html=1;align=center;verticalAlign=middle;resizable=0;points=[];" parent="0jlNFx-OGj3ViDCjPwvR-48" vertex="1" connectable="0">
          <mxGeometry x="-0.05" y="-3" relative="1" as="geometry">
            <mxPoint as="offset" />
          </mxGeometry>
        </mxCell>
        <mxCell id="0jlNFx-OGj3ViDCjPwvR-51" value="" style="endArrow=classic;html=1;rounded=0;exitX=0;exitY=0.5;exitDx=0;exitDy=0;entryX=1;entryY=0.5;entryDx=0;entryDy=0;" parent="1" source="0jlNFx-OGj3ViDCjPwvR-9" target="0jlNFx-OGj3ViDCjPwvR-8" edge="1">
          <mxGeometry width="50" height="50" relative="1" as="geometry">
            <mxPoint x="370" y="410" as="sourcePoint" />
            <mxPoint x="530" y="410" as="targetPoint" />
          </mxGeometry>
        </mxCell>
        <mxCell id="0jlNFx-OGj3ViDCjPwvR-52" value="&lt;div&gt;DFU_DNLOAD&lt;br&gt;(wLength=0)&lt;br&gt;&lt;/div&gt;" style="edgeLabel;html=1;align=center;verticalAlign=middle;resizable=0;points=[];" parent="0jlNFx-OGj3ViDCjPwvR-51" vertex="1" connectable="0">
          <mxGeometry x="0.2127" relative="1" as="geometry">
            <mxPoint x="19" as="offset" />
          </mxGeometry>
        </mxCell>
        <mxCell id="0jlNFx-OGj3ViDCjPwvR-53" value="&lt;div&gt;&lt;br&gt;&lt;/div&gt;" style="edgeLabel;html=1;align=center;verticalAlign=middle;resizable=0;points=[];" parent="0jlNFx-OGj3ViDCjPwvR-51" vertex="1" connectable="0">
          <mxGeometry x="-0.05" y="-3" relative="1" as="geometry">
            <mxPoint as="offset" />
          </mxGeometry>
        </mxCell>
        <mxCell id="0jlNFx-OGj3ViDCjPwvR-54" value="" style="endArrow=classic;html=1;rounded=0;exitX=1;exitY=1;exitDx=0;exitDy=0;entryX=1;entryY=0;entryDx=0;entryDy=0;startArrow=none;startFill=0;endFill=1;" parent="1" source="0jlNFx-OGj3ViDCjPwvR-8" target="0jlNFx-OGj3ViDCjPwvR-13" edge="1">
          <mxGeometry width="50" height="50" relative="1" as="geometry">
            <mxPoint x="352" y="629" as="sourcePoint" />
            <mxPoint x="352" y="772" as="targetPoint" />
          </mxGeometry>
        </mxCell>
        <mxCell id="0jlNFx-OGj3ViDCjPwvR-55" value="&lt;div&gt;DFU_GETSTATUS&lt;br&gt;(manifestation&lt;br&gt; in progress)&lt;br&gt;&lt;/div&gt;" style="edgeLabel;html=1;align=center;verticalAlign=middle;resizable=0;points=[];" parent="0jlNFx-OGj3ViDCjPwvR-54" vertex="1" connectable="0">
          <mxGeometry x="0.2127" relative="1" as="geometry">
            <mxPoint x="3" y="3" as="offset" />
          </mxGeometry>
        </mxCell>
        <mxCell id="0jlNFx-OGj3ViDCjPwvR-56" value="&lt;div&gt;&lt;br&gt;&lt;/div&gt;" style="edgeLabel;html=1;align=center;verticalAlign=middle;resizable=0;points=[];" parent="0jlNFx-OGj3ViDCjPwvR-54" vertex="1" connectable="0">
          <mxGeometry x="-0.05" y="-3" relative="1" as="geometry">
            <mxPoint as="offset" />
          </mxGeometry>
        </mxCell>
        <mxCell id="0jlNFx-OGj3ViDCjPwvR-57" value="" style="endArrow=classic;html=1;rounded=0;exitX=0;exitY=0;exitDx=0;exitDy=0;entryX=0;entryY=1;entryDx=0;entryDy=0;startArrow=none;startFill=0;endFill=1;" parent="1" source="0jlNFx-OGj3ViDCjPwvR-13" target="0jlNFx-OGj3ViDCjPwvR-8" edge="1">
          <mxGeometry width="50" height="50" relative="1" as="geometry">
            <mxPoint x="296" y="772" as="sourcePoint" />
            <mxPoint x="296" y="629" as="targetPoint" />
          </mxGeometry>
        </mxCell>
        <mxCell id="0jlNFx-OGj3ViDCjPwvR-58" value="&lt;div&gt;Status Poll Timeout&lt;/div&gt;" style="edgeLabel;html=1;align=center;verticalAlign=middle;resizable=0;points=[];" parent="0jlNFx-OGj3ViDCjPwvR-57" vertex="1" connectable="0">
          <mxGeometry x="0.2127" relative="1" as="geometry">
            <mxPoint x="-5" y="-22" as="offset" />
          </mxGeometry>
        </mxCell>
        <mxCell id="0jlNFx-OGj3ViDCjPwvR-59" value="&lt;div&gt;&lt;br&gt;&lt;/div&gt;" style="edgeLabel;html=1;align=center;verticalAlign=middle;resizable=0;points=[];" parent="0jlNFx-OGj3ViDCjPwvR-57" vertex="1" connectable="0">
          <mxGeometry x="-0.05" y="-3" relative="1" as="geometry">
            <mxPoint as="offset" />
          </mxGeometry>
        </mxCell>
        <mxCell id="0jlNFx-OGj3ViDCjPwvR-60" value="" style="endArrow=classic;html=1;curved=1;exitX=0.707;exitY=0.948;exitDx=0;exitDy=0;entryX=0.329;entryY=0.941;entryDx=0;entryDy=0;exitPerimeter=0;entryPerimeter=0;" parent="1" source="0jlNFx-OGj3ViDCjPwvR-10" target="0jlNFx-OGj3ViDCjPwvR-10" edge="1">
          <mxGeometry width="50" height="50" relative="1" as="geometry">
            <mxPoint x="500" y="852" as="sourcePoint" />
            <mxPoint x="463" y="852" as="targetPoint" />
            <Array as="points">
              <mxPoint x="520" y="872" />
              <mxPoint x="510" y="902" />
              <mxPoint x="480" y="912" />
              <mxPoint x="450" y="902" />
              <mxPoint x="440" y="882" />
            </Array>
          </mxGeometry>
        </mxCell>
        <mxCell id="0jlNFx-OGj3ViDCjPwvR-61" value="DFU_GETSTATE" style="edgeLabel;html=1;align=center;verticalAlign=middle;resizable=0;points=[];" parent="0jlNFx-OGj3ViDCjPwvR-60" vertex="1" connectable="0">
          <mxGeometry x="0.0262" y="-3" relative="1" as="geometry">
            <mxPoint x="4" y="3" as="offset" />
          </mxGeometry>
        </mxCell>
        <mxCell id="0jlNFx-OGj3ViDCjPwvR-62" value="" style="endArrow=classic;html=1;curved=1;exitX=0.707;exitY=0.948;exitDx=0;exitDy=0;entryX=0.329;entryY=0.941;entryDx=0;entryDy=0;exitPerimeter=0;entryPerimeter=0;" parent="1" edge="1">
          <mxGeometry width="50" height="50" relative="1" as="geometry">
            <mxPoint x="657" y="835" as="sourcePoint" />
            <mxPoint x="626" y="834" as="targetPoint" />
            <Array as="points">
              <mxPoint x="680" y="872" />
              <mxPoint x="670" y="902" />
              <mxPoint x="640" y="912" />
              <mxPoint x="610" y="902" />
              <mxPoint x="600" y="882" />
            </Array>
          </mxGeometry>
        </mxCell>
        <mxCell id="0jlNFx-OGj3ViDCjPwvR-63" value="&lt;div&gt;DFU_GETSTATUS&lt;/div&gt;" style="edgeLabel;html=1;align=center;verticalAlign=middle;resizable=0;points=[];" parent="0jlNFx-OGj3ViDCjPwvR-62" vertex="1" connectable="0">
          <mxGeometry x="0.0262" y="-3" relative="1" as="geometry">
            <mxPoint x="4" y="3" as="offset" />
          </mxGeometry>
        </mxCell>
        <mxCell id="0jlNFx-OGj3ViDCjPwvR-66" value="Re-enumeration" style="rounded=0;whiteSpace=wrap;html=1;" parent="1" vertex="1">
          <mxGeometry x="40" y="560" width="120" height="80" as="geometry" />
        </mxCell>
        <mxCell id="0jlNFx-OGj3ViDCjPwvR-67" value="" style="endArrow=classic;html=1;rounded=0;exitX=0.3;exitY=0.975;exitDx=0;exitDy=0;entryX=0.5;entryY=0;entryDx=0;entryDy=0;exitPerimeter=0;" parent="1" source="0jlNFx-OGj3ViDCjPwvR-5" target="0jlNFx-OGj3ViDCjPwvR-66" edge="1">
          <mxGeometry width="50" height="50" relative="1" as="geometry">
            <mxPoint x="290" y="510" as="sourcePoint" />
            <mxPoint x="340" y="460" as="targetPoint" />
          </mxGeometry>
        </mxCell>
        <mxCell id="0jlNFx-OGj3ViDCjPwvR-68" value="DFU_DETACH" style="edgeLabel;html=1;align=center;verticalAlign=middle;resizable=0;points=[];" parent="0jlNFx-OGj3ViDCjPwvR-67" vertex="1" connectable="0">
          <mxGeometry x="0.0299" y="-8" relative="1" as="geometry">
            <mxPoint x="15" as="offset" />
          </mxGeometry>
        </mxCell>
        <mxCell id="0jlNFx-OGj3ViDCjPwvR-69" value="Any state" style="ellipse;whiteSpace=wrap;html=1;aspect=fixed;" parent="1" vertex="1">
          <mxGeometry x="280" y="160" width="80" height="80" as="geometry" />
        </mxCell>
        <mxCell id="0jlNFx-OGj3ViDCjPwvR-70" value="" style="endArrow=classic;html=1;rounded=0;exitX=0.5;exitY=1;exitDx=0;exitDy=0;entryX=0.5;entryY=0;entryDx=0;entryDy=0;" parent="1" source="0jlNFx-OGj3ViDCjPwvR-69" target="0jlNFx-OGj3ViDCjPwvR-5" edge="1">
          <mxGeometry width="50" height="50" relative="1" as="geometry">
            <mxPoint x="314" y="448" as="sourcePoint" />
            <mxPoint x="110" y="570" as="targetPoint" />
          </mxGeometry>
        </mxCell>
        <mxCell id="0jlNFx-OGj3ViDCjPwvR-71" value="SET_ALTERNATE" style="edgeLabel;html=1;align=center;verticalAlign=middle;resizable=0;points=[];" parent="0jlNFx-OGj3ViDCjPwvR-70" vertex="1" connectable="0">
          <mxGeometry x="0.0299" y="-8" relative="1" as="geometry">
            <mxPoint x="15" as="offset" />
          </mxGeometry>
        </mxCell>
        <mxCell id="3Tp-KsUwGLe7DCokumgP-1" value="" style="endArrow=classic;html=1;rounded=0;exitX=0.5;exitY=0;exitDx=0;exitDy=0;entryX=0.5;entryY=1;entryDx=0;entryDy=0;startArrow=none;startFill=0;endFill=1;" edge="1" parent="1" source="0jlNFx-OGj3ViDCjPwvR-8" target="0jlNFx-OGj3ViDCjPwvR-5">
          <mxGeometry width="50" height="50" relative="1" as="geometry">
            <mxPoint x="320" y="583" as="sourcePoint" />
            <mxPoint x="320" y="438" as="targetPoint" />
          </mxGeometry>
        </mxCell>
        <mxCell id="3Tp-KsUwGLe7DCokumgP-2" value="&lt;div&gt;DFU_GETSTATUS&lt;br&gt;(manifestation&lt;br&gt;complete)&lt;/div&gt;" style="edgeLabel;html=1;align=center;verticalAlign=middle;resizable=0;points=[];" vertex="1" connectable="0" parent="3Tp-KsUwGLe7DCokumgP-1">
          <mxGeometry x="0.2127" relative="1" as="geometry">
            <mxPoint x="-3" y="20" as="offset" />
          </mxGeometry>
        </mxCell>
        <mxCell id="3Tp-KsUwGLe7DCokumgP-3" value="&lt;div&gt;&lt;br&gt;&lt;/div&gt;" style="edgeLabel;html=1;align=center;verticalAlign=middle;resizable=0;points=[];" vertex="1" connectable="0" parent="3Tp-KsUwGLe7DCokumgP-1">
          <mxGeometry x="-0.05" y="-3" relative="1" as="geometry">
            <mxPoint as="offset" />
          </mxGeometry>
        </mxCell>
      </root>
    </mxGraphModel>
  </diagram>
</mxfile>
